<svg width="1440" height="427" viewBox="0 0 1440 427" fill="none" xmlns="http://www.w3.org/2000/svg">
<path d="M0 24.8923C58.626 -1.10768 215.55 -27.9077 374.24 72.8923C572.602 198.892 821.929 150.392 950.84 113.392C1079.75 76.3923 1277.11 109.892 1440 367.892" stroke="#3B82F6" stroke-opacity="0.1" stroke-width="2"/>
<path d="M0.5 126.892C59.126 100.892 217.05 25.5923 375.739 126.392C576.6 246.392 821.93 207.785 950.84 170.785C1079.75 133.785 1255.63 243.392 1363.05 425.392" stroke="#3B82F6" stroke-opacity="0.1" stroke-width="2"/>
<path d="M0.5 252.392C24.4833 223.392 224.544 88.0923 383.234 188.892C584.095 308.892 732.991 282.892 861.902 245.892C990.812 208.892 1143.21 243.392 1250.63 425.392" stroke="#3B82F6" stroke-opacity="0.1" stroke-width="2"/>
<path d="M22.4844 425.392C47.467 286.392 284.003 164.092 442.693 264.892C643.553 384.892 738.987 334.892 867.897 297.892C996.808 260.892 1107.23 368.892 1142.21 425.892" stroke="#3B82F6" stroke-opacity="0.1" stroke-width="2"/>
<path d="M143.4 425.392C182.873 359.892 296.794 252.392 467.675 328.892C668.536 448.892 760.472 411.406 889.382 374.406C940.847 359.635 1006.8 406.392 1019.79 425.392" stroke="#3B82F6" stroke-opacity="0.1" stroke-width="2"/>
</svg>
